<svg width="138" height="44" viewBox="0 0 138 44" fill="none" xmlns="http://www.w3.org/2000/svg">
<path d="M3.3212 35.0109C2.79384 36.1615 3.28801 37.526 4.43125 38.0571C5.5708 38.5918 6.92425 38.0903 7.45161 36.9396L13.2895 24.246L7.39261 26.1674L3.3212 35.0109Z" fill="url(#paint0_linear_430_4)"/>
<path d="M17.8367 8.91176C17.2872 8.65361 16.6603 8.6278 16.0923 8.83801C15.5244 9.04821 15.0634 9.47601 14.809 10.0292L10.0037 20.488L15.9043 18.5703L18.9431 11.9653C19.2012 11.4121 19.227 10.7778 19.0205 10.2062C18.8103 9.6309 18.3862 9.16623 17.8367 8.91176Z" fill="url(#paint1_linear_430_4)"/>
<path d="M30.1653 18.3786C29.0478 18.3712 28.1001 17.5488 27.9304 16.4351C27.7571 15.3213 28.4062 14.2482 29.4683 13.8941L31.6994 13.175C32.4849 12.891 33.359 13.0607 33.9822 13.6175C34.6092 14.1744 34.8821 15.03 34.694 15.8524C34.5096 16.6711 33.8937 17.3238 33.0934 17.5525L30.8623 18.2716C30.6373 18.3454 30.4013 18.3823 30.1653 18.3786Z" fill="url(#paint2_linear_430_4)"/>
<path d="M26.5918 17.5008C26.5991 17.5229 26.6065 17.5488 26.6065 17.5709L24.5487 1.89008C24.3311 0.684147 23.21 -0.141936 22.0041 0.0203306C20.7944 0.182597 19.9278 1.27421 20.031 2.49489L21.8824 16.6157L23.73 16.0183C24.9248 15.6348 26.2045 16.2986 26.5918 17.5008Z" fill="url(#paint3_linear_430_4)"/>
<path d="M26.6948 18.2753C26.669 19.2489 26.0347 20.1008 25.1164 20.3958L22.4869 21.2514L24.1981 34.2511L29.1989 40.148C29.4607 40.4578 29.6377 40.834 29.7152 41.236L26.6948 18.2753Z" fill="url(#paint4_linear_430_4)"/>
<path d="M25.832 43.2385C25.7988 43.209 25.7656 43.1758 25.7361 43.1426L14.6024 30.0101C13.8612 29.0402 14.005 27.6536 14.927 26.857C15.8489 26.0604 17.2319 26.1342 18.0653 27.0229L24.202 34.2585L25.2124 41.9477C25.2751 42.4308 25.4927 42.8844 25.832 43.2385Z" fill="url(#paint5_linear_430_4)"/>
<path d="M29.7448 41.6638C29.7448 41.7523 29.7375 41.8445 29.7227 41.933C29.7227 41.9809 29.7116 42.0289 29.6969 42.0768C29.6821 42.1727 29.66 42.2612 29.6305 42.3534C29.6121 42.4124 29.5863 42.4714 29.5604 42.5304C29.5309 42.6226 29.4867 42.7111 29.4314 42.7959C29.365 42.9029 29.2912 43.0062 29.2138 43.102C29.1326 43.2053 29.0441 43.2975 28.9446 43.3786C28.7897 43.5151 28.6163 43.6294 28.4283 43.7216C28.3582 43.7548 28.2844 43.7843 28.2107 43.8064C28.1406 43.8322 28.0742 43.8507 28.0042 43.8691C27.923 43.8912 27.8382 43.906 27.7534 43.9134C27.6612 43.9281 27.5653 43.9392 27.4694 43.9392C27.3698 43.9392 27.2703 43.9318 27.1707 43.9134C27.1264 43.9134 27.0859 43.906 27.0416 43.8912C26.6507 43.8138 26.2819 43.6368 25.9795 43.3713C25.9242 43.3307 25.8763 43.2864 25.8357 43.2348C25.4927 42.8808 25.2751 42.4272 25.2124 41.9404L24.202 34.2512L29.199 40.1481C29.4646 40.4578 29.6416 40.834 29.7153 41.236C29.7375 41.3761 29.7448 41.5199 29.7448 41.6638Z" fill="#043078"/>
<path d="M26.4405 43.6847C26.2709 43.6036 26.116 43.4966 25.9759 43.3712C26.116 43.4966 26.2746 43.5999 26.4405 43.6847Z" fill="url(#paint6_linear_430_4)"/>
<path d="M15.9043 18.5667L13.2933 24.246L7.3927 26.1673L10.0037 20.488L15.9043 18.5667Z" fill="#092589"/>
<path d="M26.695 18.2605V18.2752C26.6692 19.2488 26.0349 20.1007 25.1166 20.3958L22.4872 21.2514L21.8787 16.6157L23.73 16.0183C24.9248 15.6347 26.2045 16.2985 26.5918 17.5008C26.5991 17.5229 26.6065 17.5487 26.6065 17.5709V17.5782L26.695 18.2605Z" fill="#5E3D3B"/>
<path d="M26.695 18.2606L26.5991 17.5783C26.6728 17.7996 26.706 18.0282 26.695 18.2606Z" fill="url(#paint7_linear_430_4)"/>
<path d="M0.109101 26.1157C0.411506 27.0672 1.28922 27.7125 2.28126 27.7125C2.51728 27.7125 2.7533 27.6757 2.97826 27.6019L7.39264 26.1673L10.0073 20.488L1.58056 23.2281C0.385691 23.619 -0.274437 24.9061 0.109101 26.1157Z" fill="url(#paint8_linear_430_4)"/>
<path d="M21.8823 16.6157L15.9043 18.5666L13.2933 24.2459L22.4908 21.2514L21.8823 16.6157Z" fill="url(#paint9_linear_430_4)"/>
<path fill-rule="evenodd" clip-rule="evenodd" d="M58.0794 36.806H56.969V35.4795H60.0131V39.3495H58.4678L58.4459 38.6822C57.9564 39.1991 57.1523 39.4726 56.2579 39.4726C54.6634 39.4726 52.8036 38.5126 52.8036 35.8023C52.8036 33.4611 54.2723 31.9486 56.5451 31.9486C57.6583 31.9486 58.5608 32.3097 59.157 32.9579L59.1926 32.9934C59.6351 33.4487 59.8891 34.0544 59.9037 34.6891H57.9372C57.9121 34.4823 57.8401 34.284 57.7266 34.1093C57.475 33.7346 57.0675 33.606 56.5205 33.606C55.525 33.606 54.8795 34.3226 54.8795 35.794C54.8795 37.5691 55.8805 37.941 56.6545 37.941C57.2152 37.941 57.8989 37.5554 58.0357 36.9783L58.0794 36.806ZM74.5086 32.0773V34.7658C74.329 34.5297 74.0941 34.3414 73.8247 34.2174C73.5552 34.0935 73.2595 34.0376 72.9634 34.0547C72.5431 34.0344 72.1268 34.143 71.77 34.3659C71.4131 34.5888 71.1329 34.9153 70.9668 35.3018C70.5947 36.2513 70.5947 37.3062 70.9668 38.2556C71.1346 38.6401 71.4156 38.9643 71.7722 39.1852C72.1289 39.406 72.5444 39.513 72.9634 39.4918C73.2706 39.5101 73.5774 39.4499 73.8549 39.3169C74.1324 39.1839 74.3715 38.9824 74.5496 38.7315V39.3496H76.2289V32.0773H74.5086ZM74.5305 36.9292C74.5305 37.6895 74.1804 38.1025 73.5322 38.1025C73.3496 38.1179 73.1667 38.0768 73.0082 37.9848C72.8498 37.8929 72.7233 37.7544 72.6461 37.5883C72.5506 37.3258 72.5087 37.0468 72.523 36.7678C72.5093 36.4942 72.5511 36.2207 72.6461 35.9637C72.7233 35.7975 72.8498 35.6591 73.0082 35.5671C73.1667 35.4752 73.3496 35.4341 73.5322 35.4495C74.1804 35.4495 74.5305 35.8625 74.5305 36.6228V36.9292ZM49.0248 34.234C49.3025 34.099 49.61 34.0373 49.9183 34.0546C50.3382 34.0359 50.7539 34.1451 51.1104 34.3678C51.4669 34.5905 51.7474 34.9162 51.9148 35.3018C52.2869 36.2512 52.2869 37.3061 51.9148 38.2556C51.7454 38.6389 51.4641 38.962 51.1078 39.1826C50.7515 39.4032 50.3369 39.511 49.9183 39.4918C49.622 39.5099 49.3259 39.4544 49.0563 39.3303C48.7867 39.2063 48.5519 39.0174 48.373 38.7807V41.4282H46.6527V34.2105H48.332V34.8259C48.5087 34.5727 48.7472 34.369 49.0248 34.234ZM49.8732 37.9635C50.0327 37.8715 50.1601 37.7329 50.2382 37.5663C50.3308 37.3145 50.3708 37.0465 50.3559 36.7787C50.3696 36.5051 50.3277 36.2315 50.2328 35.9746C50.1549 35.8089 50.0284 35.6709 49.87 35.579C49.7117 35.4872 49.5291 35.4458 49.3466 35.4604C48.6984 35.4604 48.3484 35.8734 48.3484 36.6337V36.9072C48.3484 37.6703 48.6984 38.0805 49.3466 38.0805C49.53 38.0963 49.7138 38.0554 49.8732 37.9635ZM43.2035 38.1025C43.7697 38.1025 44.0787 37.7715 44.0787 37.0932L44.0705 34.2106H45.7908V39.3496H44.0787V38.7096C43.9069 38.9665 43.6715 39.1745 43.3954 39.3135C43.1194 39.4525 42.8121 39.5177 42.5034 39.5028C41.3492 39.5028 40.6791 38.8026 40.6791 37.5144V34.2106H42.3995V37.1452C42.3995 37.829 42.6374 38.1025 43.2035 38.1025ZM63.5329 34.0656C63.3305 34.0642 63.1319 34.1206 62.9604 34.2281C62.7889 34.3357 62.6516 34.4899 62.5647 34.6727V34.2105H60.8553V39.3496H62.5757V36.1031C62.5757 35.7449 62.6057 35.6601 62.7507 35.5999C62.8277 35.7448 62.944 35.865 63.0862 35.9467C63.2285 36.0285 63.3909 36.0685 63.5548 36.0621C63.6866 36.0668 63.818 36.0441 63.9407 35.9954C64.0633 35.9468 64.1745 35.8732 64.2673 35.7794C64.3601 35.6856 64.4324 35.5736 64.4797 35.4504C64.527 35.3273 64.5482 35.1956 64.5421 35.0638C64.5503 34.9297 64.5296 34.7953 64.4816 34.6698C64.4336 34.5443 64.3594 34.4304 64.2638 34.3359C64.1683 34.2414 64.0536 34.1684 63.9276 34.1218C63.8015 34.0751 63.667 34.056 63.5329 34.0656ZM65.0838 35.1486C65.4256 34.3937 66.3008 34.0546 67.455 34.0546C68.6994 34.0546 69.4324 34.3855 69.7715 35.1267C69.9276 35.5301 70.0011 35.9607 69.9876 36.393V39.3441H68.2673V38.7342C67.9364 39.2128 67.3839 39.4863 66.5689 39.4863C65.7538 39.4863 65.1467 39.1991 64.8896 38.622C64.7839 38.3936 64.7342 38.1433 64.7446 37.8918C64.7379 37.6525 64.7798 37.4143 64.8677 37.1916C65.2396 36.3875 66.2379 36.2015 67.496 36.2015H68.2673V36.1195C68.2846 35.9332 68.2564 35.7455 68.1852 35.5725C68.0813 35.3455 67.8762 35.2306 67.4741 35.2306C67.0721 35.2306 66.8451 35.3346 66.7439 35.5616C66.7054 35.6602 66.6841 35.7648 66.681 35.8706H64.9306C64.9359 35.6225 64.9878 35.3775 65.0838 35.1486ZM68.1825 37.8043C68.2605 37.6263 68.2925 37.4316 68.2755 37.2381V37.1643H67.6164C67.1213 37.1643 66.7193 37.2108 66.6071 37.4843C66.5728 37.5584 66.5551 37.6391 66.5551 37.7208C66.5551 37.8025 66.5728 37.8833 66.6071 37.9574C66.6789 38.069 66.7813 38.1575 66.9021 38.2123C67.0229 38.2672 67.1569 38.286 67.2882 38.2665C67.7504 38.2665 68.0485 38.1024 68.1825 37.8043Z" fill="#DB4144"/>
<path d="M42.9014 15.7828V22.4367H43.2747C43.3955 22.4433 43.5161 22.4218 43.6271 22.374C43.724 22.3186 43.8052 22.2395 43.8631 22.144L45.416 19.8295C45.495 19.703 45.6064 19.5999 45.7386 19.5309C45.8857 19.4609 46.0477 19.4281 46.2105 19.4353H48.4623L46.3359 22.3591C46.2398 22.4929 46.1297 22.6161 46.0074 22.7264C45.8879 22.837 45.759 22.937 45.6221 23.025C45.8677 23.2125 46.0746 23.4457 46.2314 23.7119L48.5459 27.6451H46.3269C46.1618 27.6494 45.9978 27.6179 45.8461 27.5526C45.7041 27.4856 45.5884 27.3731 45.5176 27.233L43.9646 24.3242C43.9138 24.2177 43.8341 24.1277 43.7347 24.0643C43.6209 24.0187 43.4987 23.9983 43.3763 24.0046H42.9014V27.6541H40.4435V15.7828H42.9014Z" fill="black"/>
<path d="M49.1013 27.6541V19.4323H50.6244C50.7601 19.4274 50.8941 19.4627 51.0097 19.5339C51.1142 19.6058 51.1911 19.7111 51.2277 19.8325L51.3711 20.3074C51.5266 20.161 51.6901 20.0234 51.8608 19.8952C52.0306 19.7695 52.2127 19.6614 52.4044 19.5727C52.6057 19.4832 52.816 19.4152 53.0315 19.3696C53.2718 19.3166 53.5172 19.2906 53.7632 19.292C54.1738 19.2834 54.5813 19.3639 54.9578 19.5279C55.2947 19.6752 55.5938 19.8967 55.8329 20.176C56.0781 20.4666 56.262 20.8039 56.3734 21.1675C56.4985 21.5716 56.5599 21.9928 56.5556 22.4158V27.6541H54.0977V22.4278C54.1179 22.0923 54.0196 21.7604 53.82 21.49C53.719 21.3742 53.5926 21.2835 53.4506 21.2249C53.3086 21.1663 53.1549 21.1416 53.0017 21.1526C52.736 21.1483 52.4731 21.2066 52.2341 21.3228C51.9858 21.447 51.7557 21.6048 51.5502 21.7917V27.6541H49.1013Z" fill="black"/>
<path d="M61.4922 19.3038C62.0741 19.2987 62.652 19.3999 63.1975 19.6025C63.6946 19.7858 64.1464 20.0741 64.5221 20.4478C64.8978 20.8214 65.1886 21.2716 65.3746 21.7677C65.5834 22.3291 65.6847 22.9248 65.6733 23.5237C65.684 24.1275 65.5828 24.7279 65.3746 25.2947C65.1864 25.797 64.8944 26.2539 64.5175 26.6357C64.1426 27.0087 63.6926 27.2978 63.1975 27.4838C62.6523 27.6876 62.0742 27.7889 61.4922 27.7825C60.9063 27.789 60.3242 27.6878 59.775 27.4838C59.277 27.2966 58.8233 27.0077 58.443 26.6357C58.0634 26.255 57.7692 25.7979 57.5799 25.2947C57.3718 24.7279 57.2705 24.1275 57.2813 23.5237C57.2699 22.9248 57.3712 22.3291 57.5799 21.7677C57.766 21.2643 58.0583 20.807 58.437 20.4267C58.8185 20.0575 59.2719 19.7708 59.769 19.5846C60.3217 19.3876 60.9056 19.2925 61.4922 19.3038V19.3038ZM61.4922 25.9577C61.7343 25.9757 61.9769 25.93 62.1959 25.8252C62.4149 25.7205 62.6027 25.5602 62.7406 25.3604C63.0093 24.9632 63.1408 24.357 63.1408 23.5417C63.1408 22.7263 63.0093 22.1231 62.7406 21.7259C62.6027 21.5261 62.4149 21.3658 62.1959 21.2611C61.9769 21.1563 61.7343 21.1106 61.4922 21.1286C61.2462 21.1094 60.9993 21.1544 60.7758 21.259C60.5523 21.3637 60.3598 21.5246 60.217 21.7259C59.9452 22.1231 59.8108 22.7263 59.8108 23.5417C59.8108 24.357 59.9452 24.9632 60.217 25.3604C60.3596 25.5619 60.5521 25.723 60.7756 25.8277C60.9992 25.9324 61.2461 25.9772 61.4922 25.9577V25.9577Z" fill="black"/>
<path d="M65.5926 19.4323H67.5607C67.7194 19.4277 67.876 19.4692 68.0116 19.5518C68.0687 19.5828 68.1186 19.6254 68.1582 19.6768C68.1978 19.7282 68.2262 19.7874 68.2416 19.8504L69.0659 23.5388C69.1316 23.8195 69.1883 24.0913 69.2421 24.3541C69.2958 24.6169 69.3406 24.8797 69.3824 25.1395C69.4571 24.8797 69.5348 24.6199 69.6184 24.3571C69.702 24.0942 69.7797 23.8225 69.8603 23.5388L70.8906 19.8415C70.9287 19.7174 71.0104 19.6114 71.1206 19.5428C71.2456 19.4609 71.3922 19.4183 71.5417 19.4204H72.6347C72.7928 19.4167 72.9485 19.4593 73.0827 19.5428C73.1952 19.6095 73.2783 19.7162 73.3157 19.8415L74.3012 23.5388C74.3729 23.8195 74.4505 24.0913 74.5252 24.3541C74.5998 24.6169 74.6745 24.8857 74.7432 25.1544C74.785 24.8916 74.8388 24.6288 74.8985 24.366C74.9582 24.1032 75.0239 23.8284 75.0926 23.5388L75.9647 19.8504C75.9801 19.7878 76.0082 19.729 76.0472 19.6776C76.0862 19.6262 76.1354 19.5834 76.1916 19.5518C76.318 19.4707 76.4656 19.4291 76.6157 19.4323H78.4853L75.9318 27.6541H73.9339C73.8357 27.6558 73.7402 27.6219 73.6651 27.5586C73.5778 27.4721 73.5177 27.3621 73.4919 27.242L72.3182 23.1415C72.2644 22.9564 72.2136 22.7742 72.1659 22.595C72.1181 22.4158 72.0763 22.2366 72.0404 22.0575C72.0016 22.2426 71.9628 22.4248 71.918 22.607C71.8732 22.7891 71.8194 22.9743 71.7627 23.1595L70.5681 27.242C70.5451 27.3626 70.4792 27.4709 70.3826 27.5467C70.2859 27.6225 70.1651 27.6606 70.0425 27.6541H68.1401L65.5926 19.4323Z" fill="black"/>
<path d="M81.5016 15.7828V27.6541H79.0438V15.7828H81.5016Z" fill="black"/>
<path d="M86.525 19.3039C87.0339 19.2992 87.5395 19.3851 88.0182 19.5577C88.4543 19.7185 88.8513 19.9699 89.183 20.2954C89.5191 20.6348 89.7787 21.0421 89.9445 21.49C90.1342 21.9979 90.2274 22.5367 90.2193 23.0788C90.2207 23.2305 90.2127 23.3821 90.1954 23.5328C90.1851 23.6306 90.1546 23.7252 90.1058 23.8105C90.0691 23.8773 90.0081 23.9275 89.9356 23.9509C89.8482 23.9809 89.7562 23.995 89.6638 23.9927H84.9242C84.9474 24.5495 85.17 25.0795 85.5514 25.4859C85.9106 25.8048 86.3796 25.9718 86.8595 25.9518C87.1094 25.9564 87.3584 25.9211 87.5971 25.8473C87.786 25.7851 87.9698 25.7082 88.1467 25.6173L88.5916 25.3874C88.7225 25.3189 88.868 25.283 89.0157 25.2828C89.102 25.2781 89.1881 25.2953 89.266 25.3329C89.3438 25.3706 89.4108 25.4273 89.4607 25.4979L90.1745 26.3938C89.9371 26.669 89.6604 26.9075 89.3532 27.1016C89.0727 27.2801 88.7719 27.4245 88.4573 27.5317C88.1559 27.6315 87.846 27.7035 87.5314 27.7467C87.2343 27.7844 86.935 27.8033 86.6355 27.8034C86.0825 27.808 85.5331 27.7129 85.0138 27.5227C84.5178 27.3406 84.0659 27.0556 83.6878 26.6865C83.2968 26.2936 82.9917 25.8238 82.7919 25.3067C82.5622 24.6941 82.4507 24.0435 82.4634 23.3894C82.4598 22.8559 82.555 22.3263 82.7441 21.8275C82.9257 21.3415 83.2048 20.8979 83.5643 20.524C83.9239 20.1501 84.3562 19.8538 84.8346 19.6533C85.3681 19.422 85.9435 19.3031 86.525 19.3039V19.3039ZM86.5728 21.0002C86.3716 20.9891 86.1702 21.0189 85.9809 21.0876C85.7915 21.1564 85.618 21.2628 85.4708 21.4004C85.1811 21.7222 84.9984 22.1261 84.9481 22.5562H88.0153C88.0162 22.3635 87.9911 22.1717 87.9406 21.9858C87.8933 21.8056 87.81 21.637 87.6957 21.49C87.5759 21.3392 87.4225 21.2185 87.2477 21.1376C87.0383 21.0407 86.8094 20.9937 86.5788 21.0002H86.5728Z" fill="black"/>
<path d="M96.9299 27.6541C96.7939 27.6591 96.6595 27.6226 96.5447 27.5496C96.439 27.4789 96.3617 27.3731 96.3267 27.2509L96.1355 26.6238C95.9766 26.796 95.8038 26.9548 95.6189 27.0986C95.2508 27.3893 94.8222 27.5934 94.3645 27.6959C94.1075 27.7514 93.8451 27.7785 93.5821 27.7765C93.1653 27.7773 92.7549 27.6747 92.3875 27.4779C92.0137 27.2794 91.6907 26.9973 91.4438 26.6536C91.16 26.254 90.9497 25.807 90.8226 25.3336C90.662 24.7501 90.5856 24.1468 90.5956 23.5417C90.5901 22.9615 90.6757 22.3841 90.8494 21.8304C91.002 21.3361 91.2451 20.8743 91.5662 20.4686C91.8695 20.094 92.2493 19.7886 92.6802 19.5727C93.1272 19.3543 93.6192 19.2438 94.1167 19.2501C94.4827 19.2406 94.8471 19.3036 95.1888 19.4353C95.4778 19.5561 95.7467 19.7203 95.9862 19.9221V15.7828H98.4441V27.6541H96.9299ZM94.4392 25.8951C94.603 25.8967 94.7665 25.8787 94.926 25.8413C95.0652 25.8102 95.1998 25.761 95.3262 25.695C95.4501 25.6296 95.5664 25.5504 95.6726 25.459C95.7873 25.3556 95.8941 25.2438 95.9922 25.1245V21.6363C95.829 21.448 95.6246 21.2998 95.3949 21.2033C95.1782 21.1217 94.9485 21.0802 94.7169 21.0808C94.5005 21.0786 94.2863 21.1245 94.0898 21.2152C93.8896 21.3138 93.7186 21.4631 93.594 21.6483C93.4391 21.8843 93.3278 22.1463 93.2655 22.4218C93.1802 22.7989 93.1401 23.1849 93.1461 23.5716C93.1405 23.9382 93.1726 24.3045 93.2416 24.6646C93.2898 24.9167 93.3796 25.1589 93.5074 25.3814C93.6049 25.5479 93.7465 25.6844 93.9166 25.7756C94.0795 25.8545 94.2582 25.8953 94.4392 25.8951V25.8951Z" fill="black"/>
<path d="M102.781 19.2889C103.112 19.2865 103.442 19.3206 103.766 19.3905C104.064 19.456 104.354 19.5563 104.629 19.6891H107.111V20.5851C107.114 20.6443 107.105 20.7036 107.085 20.7595C107.065 20.8154 107.034 20.8668 106.994 20.9106C106.883 21.005 106.748 21.0679 106.603 21.0928L106.006 21.2272C106.08 21.4659 106.118 21.7147 106.116 21.9648C106.122 22.3496 106.034 22.73 105.86 23.0728C105.688 23.4003 105.446 23.6858 105.152 23.909C104.836 24.1505 104.477 24.3307 104.095 24.4406C103.67 24.5687 103.23 24.6321 102.787 24.6288C102.543 24.6288 102.299 24.6129 102.058 24.581C101.876 24.6885 101.786 24.811 101.786 24.9483C101.786 25.0147 101.808 25.0792 101.847 25.1328C101.886 25.1864 101.941 25.2263 102.004 25.247C102.19 25.3153 102.383 25.3585 102.58 25.3754C102.816 25.3993 103.091 25.4112 103.396 25.4112C103.7 25.4112 104.014 25.4112 104.334 25.4531C104.648 25.4832 104.96 25.533 105.268 25.6024C105.557 25.6641 105.833 25.7764 106.084 25.9339C106.323 26.0902 106.521 26.3024 106.66 26.5521C106.82 26.8543 106.898 27.193 106.887 27.5346C106.885 27.9142 106.793 28.2879 106.618 28.6247C106.425 28.9935 106.154 29.3156 105.824 29.5684C105.439 29.8647 105.004 30.0902 104.54 30.2344C103.975 30.41 103.386 30.4947 102.795 30.4853C102.234 30.4937 101.673 30.4325 101.126 30.3031C100.715 30.2044 100.322 30.0422 99.9613 29.8223C99.6803 29.6521 99.4446 29.4164 99.2744 29.1354C99.13 28.8901 99.0536 28.6107 99.0534 28.3261C99.0439 27.9868 99.1622 27.6563 99.3849 27.4002C99.6353 27.1284 99.9493 26.9232 100.299 26.8029C100.116 26.6849 99.9634 26.5252 99.8538 26.3371C99.7354 26.1161 99.6777 25.8678 99.6865 25.6173C99.6879 25.4865 99.709 25.3566 99.7492 25.2321C99.796 25.0924 99.8634 24.9605 99.9493 24.8408C100.047 24.7052 100.161 24.5827 100.29 24.4765C100.441 24.3568 100.607 24.2565 100.783 24.1778C100.374 23.9703 100.026 23.6619 99.7702 23.2819C99.5496 22.9199 99.424 22.5081 99.4052 22.0847C99.3864 21.6612 99.475 21.2399 99.6626 20.8598C99.8372 20.5302 100.082 20.2427 100.379 20.0176C100.704 19.7784 101.068 19.5985 101.455 19.486C101.885 19.3573 102.331 19.2909 102.781 19.2889V19.2889ZM104.602 27.9498C104.605 27.89 104.596 27.8302 104.575 27.7742C104.554 27.7181 104.522 27.6671 104.48 27.6242C104.385 27.5363 104.272 27.4701 104.148 27.4301C103.988 27.3776 103.823 27.3426 103.656 27.3256C103.457 27.3037 103.258 27.2928 103.058 27.2927H102.377C102.145 27.2932 101.913 27.2712 101.684 27.227C101.541 27.324 101.414 27.4429 101.308 27.5794C101.213 27.707 101.161 27.8621 101.162 28.0214C101.161 28.1314 101.187 28.2399 101.237 28.338C101.299 28.4448 101.391 28.531 101.502 28.5859C101.664 28.6655 101.838 28.7199 102.016 28.7472C102.284 28.7923 102.556 28.8123 102.828 28.8069C103.12 28.8116 103.412 28.7906 103.7 28.7442C103.89 28.7123 104.073 28.6519 104.244 28.565C104.362 28.5043 104.46 28.4097 104.525 28.2932C104.58 28.183 104.606 28.0609 104.602 27.9378V27.9498ZM102.781 23.1146C102.932 23.1363 103.087 23.1235 103.233 23.077C103.379 23.0306 103.513 22.9517 103.625 22.8463C103.736 22.741 103.822 22.6118 103.877 22.4685C103.931 22.3251 103.953 22.1714 103.939 22.0186C103.955 21.7308 103.856 21.4485 103.665 21.2331C103.407 21.0488 103.098 20.9497 102.781 20.9497C102.464 20.9497 102.154 21.0488 101.897 21.2331C101.705 21.4485 101.606 21.7308 101.622 22.0186C101.621 22.1667 101.644 22.314 101.69 22.4546C101.733 22.5845 101.804 22.703 101.9 22.801C102.002 22.9032 102.125 22.9817 102.261 23.031C102.428 23.0894 102.604 23.1177 102.781 23.1146Z" fill="black"/>
<path d="M111.217 19.3039C111.726 19.2988 112.232 19.3848 112.711 19.5578C113.148 19.7167 113.545 19.9683 113.875 20.2954C114.211 20.6348 114.471 21.0421 114.637 21.49C114.827 21.9979 114.92 22.5367 114.912 23.0788C114.913 23.2305 114.905 23.3821 114.888 23.5328C114.878 23.6304 114.849 23.7249 114.801 23.8105C114.764 23.8773 114.703 23.9275 114.631 23.9509C114.542 23.9809 114.449 23.995 114.356 23.9927H109.614C109.637 24.5496 109.859 25.0795 110.241 25.4859C110.6 25.8048 111.069 25.9718 111.549 25.9518C111.799 25.9567 112.048 25.9214 112.286 25.8473C112.476 25.7851 112.661 25.7082 112.839 25.6174L113.281 25.3874C113.412 25.3192 113.557 25.2834 113.705 25.2829C113.791 25.2778 113.878 25.2949 113.955 25.3326C114.033 25.3702 114.1 25.4271 114.15 25.4979L114.864 26.3938C114.628 26.6596 114.356 26.89 114.054 27.0777C113.774 27.2559 113.473 27.4003 113.159 27.5078C112.856 27.6074 112.545 27.6793 112.23 27.7228C111.933 27.7606 111.633 27.7796 111.334 27.7796C110.781 27.7841 110.231 27.689 109.712 27.4988C109.217 27.3174 108.766 27.0323 108.389 26.6626C107.996 26.2713 107.691 25.801 107.493 25.2829C107.261 24.6708 107.149 24.02 107.162 23.3655C107.164 22.8309 107.265 22.3013 107.46 21.8036C107.64 21.3229 107.914 20.8831 108.267 20.5105C108.628 20.1283 109.063 19.8235 109.545 19.6145C110.076 19.399 110.645 19.2933 111.217 19.3039V19.3039ZM111.265 21.0002C111.065 20.9904 110.866 21.0207 110.678 21.0894C110.49 21.1582 110.318 21.2639 110.172 21.4004C109.882 21.7224 109.699 22.126 109.646 22.5562H112.717C112.716 22.3637 112.691 22.172 112.642 21.9858C112.594 21.8055 112.509 21.6369 112.394 21.49C112.274 21.3392 112.121 21.2185 111.946 21.1376C111.733 21.0389 111.5 20.9919 111.265 21.0002Z" fill="black"/>
<path d="M116.052 27.6541V15.9739H117.465V20.7016C117.794 20.3491 118.179 20.0543 118.606 19.8295C119.053 19.6043 119.548 19.4915 120.048 19.501C120.447 19.4925 120.842 19.5668 121.21 19.719C121.535 19.8571 121.823 20.0687 122.052 20.3372C122.286 20.6211 122.459 20.9492 122.563 21.3018C122.683 21.7059 122.742 22.1257 122.736 22.5472V27.6541H121.327V22.5412C121.358 22.0349 121.21 21.5336 120.908 21.1256C120.749 20.9497 120.552 20.8127 120.331 20.7252C120.11 20.6377 119.873 20.602 119.636 20.6209C119.228 20.6182 118.826 20.7211 118.468 20.9196C118.09 21.1315 117.75 21.4073 117.465 21.7349V27.6541H116.052Z" fill="black"/>
<path d="M125.615 19.6205V24.7453C125.583 25.2503 125.732 25.7502 126.036 26.1549C126.196 26.3288 126.394 26.464 126.613 26.5504C126.833 26.6368 127.07 26.6721 127.306 26.6537C127.713 26.6542 128.114 26.5515 128.47 26.355C128.852 26.1463 129.193 25.8701 129.477 25.5397V19.6205H130.889V27.6541H130.047C129.958 27.6606 129.87 27.6335 129.8 27.5783C129.729 27.523 129.682 27.4436 129.668 27.3555L129.557 26.4894C129.225 26.8673 128.83 27.1846 128.39 27.4272C127.93 27.6691 127.416 27.7904 126.896 27.7796C126.498 27.788 126.103 27.7138 125.735 27.5616C125.411 27.43 125.122 27.2256 124.889 26.9643C124.654 26.6829 124.48 26.3553 124.379 26.0026C124.261 25.5991 124.204 25.1805 124.209 24.7602V19.6205H125.615Z" fill="black"/>
<path d="M135.169 27.7795C134.902 27.7969 134.635 27.7589 134.383 27.6679C134.132 27.5769 133.902 27.435 133.708 27.2509C133.341 26.8282 133.157 26.2774 133.195 25.7189V20.8031H132.227C132.149 20.8068 132.073 20.78 132.015 20.7284C131.984 20.6978 131.961 20.6608 131.946 20.62C131.931 20.5793 131.925 20.5358 131.929 20.4925V19.931L133.243 19.7638L133.568 17.282C133.577 17.2064 133.614 17.1369 133.673 17.0879C133.734 17.0361 133.813 17.0094 133.894 17.0132H134.607V19.7817H136.907V20.8031H134.607V25.6233C134.596 25.7592 134.612 25.896 134.654 26.0257C134.696 26.1554 134.763 26.2755 134.852 26.3789C134.936 26.4603 135.036 26.524 135.145 26.5661C135.255 26.6081 135.371 26.6278 135.488 26.6238C135.618 26.626 135.748 26.6058 135.871 26.564C135.969 26.5298 136.064 26.4857 136.154 26.4326C136.223 26.3923 136.29 26.3484 136.354 26.3012C136.396 26.2674 136.447 26.2466 136.501 26.2415C136.543 26.245 136.584 26.2596 136.619 26.2837C136.654 26.3077 136.682 26.3406 136.701 26.3789L137.113 27.0508C136.859 27.289 136.559 27.4738 136.232 27.5944C135.892 27.7211 135.532 27.7839 135.169 27.7795V27.7795Z" fill="black"/>
<defs>
<linearGradient id="paint0_linear_430_4" x1="14.0844" y1="43.7214" x2="30.0644" y2="24.1459" gradientUnits="userSpaceOnUse">
<stop stop-color="#C100D4"/>
<stop offset="1" stop-color="#FF712A"/>
</linearGradient>
<linearGradient id="paint1_linear_430_4" x1="15.034" y1="43.4041" x2="29.9517" y2="22.494" gradientUnits="userSpaceOnUse">
<stop stop-color="#C100D4"/>
<stop offset="1" stop-color="#FF712A"/>
</linearGradient>
<linearGradient id="paint2_linear_430_4" x1="29.4301" y1="1.67446" x2="6.42378" y2="20.4937" gradientUnits="userSpaceOnUse">
<stop stop-color="#C100D4"/>
<stop offset="1" stop-color="#00CDFF"/>
</linearGradient>
<linearGradient id="paint3_linear_430_4" x1="12.565" y1="12.5319" x2="42.0338" y2="44.4572" gradientUnits="userSpaceOnUse">
<stop stop-color="#FF953F"/>
<stop offset="1" stop-color="#940094"/>
</linearGradient>
<linearGradient id="paint4_linear_430_4" x1="14.1803" y1="14.2645" x2="43.9816" y2="37.0545" gradientUnits="userSpaceOnUse">
<stop stop-color="#FF953F"/>
<stop offset="1" stop-color="#940094"/>
</linearGradient>
<linearGradient id="paint5_linear_430_4" x1="14.0517" y1="43.2454" x2="25.8322" y2="43.2454" gradientUnits="userSpaceOnUse">
<stop stop-color="#27D400"/>
<stop offset="1" stop-color="#00CDFF"/>
</linearGradient>
<linearGradient id="paint6_linear_430_4" x1="25.6902" y1="43.7234" x2="26.3614" y2="43.9582" gradientUnits="userSpaceOnUse">
<stop stop-color="#27D400"/>
<stop offset="1" stop-color="#00CDFF"/>
</linearGradient>
<linearGradient id="paint7_linear_430_4" x1="26.7902" y1="17.7139" x2="26.5706" y2="17.8232" gradientUnits="userSpaceOnUse">
<stop stop-color="#C100D4"/>
<stop offset="1" stop-color="#00CDFF"/>
</linearGradient>
<linearGradient id="paint8_linear_430_4" x1="26.9417" y1="8.51177" x2="8.78099" y2="19.6253" gradientUnits="userSpaceOnUse">
<stop stop-color="#C100D4"/>
<stop offset="1" stop-color="#00CDFF"/>
</linearGradient>
<linearGradient id="paint9_linear_430_4" x1="27.5186" y1="7.31975" x2="7.7854" y2="16.4649" gradientUnits="userSpaceOnUse">
<stop stop-color="#C100D4"/>
<stop offset="1" stop-color="#00CDFF"/>
</linearGradient>
</defs>
</svg>
