<?xml version="1.0" standalone="no"?>
<!DOCTYPE svg PUBLIC "-//W3C//DTD SVG 20010904//EN"
 "http://www.w3.org/TR/2001/REC-SVG-20010904/DTD/svg10.dtd">
<svg version="1.0" xmlns="http://www.w3.org/2000/svg"
 width="774.000000pt" height="658.000000pt" viewBox="0 0 774.000000 658.000000"
 preserveAspectRatio="xMidYMid meet">

<g transform="translate(0.000000,658.000000) scale(0.100000,-0.100000)"
fill="#000000" stroke="none">
<path d="M5225 4410 c-55 -10 -129 -29 -165 -41 -96 -31 -254 -116 -314 -168
-160 -139 -247 -328 -246 -538 1 -241 119 -436 359 -594 75 -49 147 -86 485
-248 200 -96 313 -169 389 -251 107 -115 139 -257 95 -415 -34 -119 -171 -233
-321 -267 -81 -19 -288 -16 -381 6 -88 20 -211 67 -273 105 l-41 25 -64 204
-63 203 -95 -6 c-52 -4 -96 -9 -98 -10 -2 -2 1 -114 7 -249 6 -135 11 -267 11
-294 l0 -49 68 -31 c200 -91 448 -142 694 -143 399 0 713 141 885 397 115 172
143 412 68 595 -79 196 -229 324 -575 490 -417 200 -499 248 -601 349 -96 94
-139 190 -139 310 0 230 165 390 435 421 136 15 331 -16 422 -68 l42 -24 63
-190 63 -190 95 6 c52 4 96 9 98 10 7 6 -36 567 -44 575 -15 14 -172 58 -269
76 -56 10 -165 17 -290 20 -167 3 -216 0 -300 -16z"/>
<path d="M1358 4320 c-1 -38 -2 -77 -2 -87 -1 -13 26 -23 131 -47 73 -17 137
-36 143 -42 21 -21 29 -334 29 -1104 0 -739 -8 -1093 -26 -1111 -4 -4 -69 -22
-143 -39 -74 -17 -136 -32 -136 -33 -1 -1 1 -39 4 -85 l5 -82 442 0 442 0 6
82 c4 45 5 83 4 84 -1 2 -73 17 -159 35 l-156 32 -6 56 c-4 31 -9 457 -12 946
l-5 890 186 -250 c103 -137 462 -620 798 -1072 l611 -823 103 0 102 0 4 1208
c2 709 8 1221 13 1242 l10 34 137 31 137 30 0 41 c0 23 -3 62 -6 88 l-7 46
-433 0 -432 0 -7 -63 c-13 -116 -21 -108 149 -142 135 -28 150 -33 160 -55 16
-38 21 -1679 5 -1663 -7 7 -337 441 -734 965 l-721 953 -317 3 -317 2 -2 -70z"/>
</g>
</svg>
